<svg xmlns="http://www.w3.org/2000/svg" width="300" height="60" viewBox="0 0 300 60" fill="none">
  <rect width="300" height="60" fill="#1B4F8A"/>
  <!-- Symbol: 48×48 at (4,6) -->
  <g transform="translate(4,6)">
  <circle cx="24" cy="24" r="22.5" stroke="#FFFFFF" stroke-width="1" fill="none"/>
  <polygon points="24.00,2.50 21.00,10.00 24.00,15.00 27.00,10.00" fill="#FFFFFF"/>
  <polygon points="45.50,24.00 38.00,21.00 33.00,24.00 38.00,27.00" fill="#FFFFFF"/>
  <polygon points="24.00,45.50 27.00,38.00 24.00,33.00 21.00,38.00" fill="#FFFFFF"/>
  <polygon points="2.50,24.00 10.00,27.00 15.00,24.00 10.00,21.00" fill="#FFFFFF"/>
  <polygon points="34.61,13.39 30.01,15.16 28.95,19.05 32.84,17.99" fill="#FFFFFF"/>
  <polygon points="34.61,34.61 32.84,30.01 28.95,28.95 30.01,32.84" fill="#FFFFFF"/>
  <polygon points="13.39,34.61 17.99,32.84 19.05,28.95 15.16,30.01" fill="#FFFFFF"/>
  <polygon points="13.39,13.39 15.16,17.99 19.05,19.05 17.99,15.16" fill="#FFFFFF"/>
  <circle cx="24" cy="24" r="9" stroke="#C8A96E" stroke-width="1.5" fill="none"/>
  <circle cx="24" cy="24" r="6" fill="#C8A96E"/>
  <rect x="21.8" y="21.8" width="4.4" height="4.4" transform="rotate(45 24 24)" fill="#F5F2ED"/>
  </g>
  <!-- Wordmark -->
  <text x="62" y="26" font-family="'Segoe UI', Inter, system-ui, sans-serif" font-size="19" font-weight="700" fill="#FFFFFF" letter-spacing="-0.2">Buenos Aires</text>
  <line x1="62" y1="34" x2="218" y2="34" stroke="#C8A96E" stroke-width="1"/>
  <text x="63" y="46" font-family="'Segoe UI', Inter, system-ui, sans-serif" font-size="10" font-weight="300" fill="#FFFFFF" letter-spacing="4" opacity="0.85">EXPLORER</text>
  <!-- Separator + label -->
  <line x1="224" y1="14" x2="224" y2="46" stroke="#C8A96E" stroke-width="1" opacity="0.9"/>
  <text x="232" y="34" font-family="'Segoe UI', Inter, system-ui, sans-serif" font-size="11" font-weight="600" fill="#C8A96E" letter-spacing="1.5">BAExp</text>
</svg>