<svg xmlns="http://www.w3.org/2000/svg" width="300" height="60" viewBox="0 0 300 60" fill="none">
  <!-- Symbol: 48×48 at (4,6) -->
  <g transform="translate(4,6)">
  <line x1="28.40" y1="13.38" x2="31.08" y2="6.91" stroke="#C8A96E" stroke-width="2" stroke-linecap="round"/>
  <line x1="34.62" y1="19.60" x2="41.09" y2="16.92" stroke="#C8A96E" stroke-width="2" stroke-linecap="round"/>
  <line x1="34.62" y1="28.40" x2="41.09" y2="31.08" stroke="#C8A96E" stroke-width="2" stroke-linecap="round"/>
  <line x1="28.40" y1="34.62" x2="31.08" y2="41.09" stroke="#C8A96E" stroke-width="2" stroke-linecap="round"/>
  <line x1="19.60" y1="34.62" x2="16.92" y2="41.09" stroke="#C8A96E" stroke-width="2" stroke-linecap="round"/>
  <line x1="13.38" y1="28.40" x2="6.91" y2="31.08" stroke="#C8A96E" stroke-width="2" stroke-linecap="round"/>
  <line x1="13.38" y1="19.60" x2="6.91" y2="16.92" stroke="#C8A96E" stroke-width="2" stroke-linecap="round"/>
  <line x1="19.60" y1="13.38" x2="16.92" y2="6.91" stroke="#C8A96E" stroke-width="2" stroke-linecap="round"/>
  <polygon points="36.02,11.98 30.72,13.75 30.36,17.64 34.25,17.28" fill="#1B4F8A"/>
  <polygon points="36.02,36.02 34.25,30.72 30.36,30.36 30.72,34.25" fill="#1B4F8A"/>
  <polygon points="11.98,36.02 17.28,34.25 17.64,30.36 13.75,30.72" fill="#1B4F8A"/>
  <polygon points="11.98,11.98 13.75,17.28 17.64,17.64 17.28,13.75" fill="#1B4F8A"/>
  <polygon points="24.00,2.00 20.50,9.00 24.00,15.00 27.50,9.00" fill="#1B4F8A"/>
  <polygon points="46.00,24.00 39.00,20.50 33.00,24.00 39.00,27.50" fill="#1B4F8A"/>
  <polygon points="24.00,46.00 27.50,39.00 24.00,33.00 20.50,39.00" fill="#1B4F8A"/>
  <polygon points="2.00,24.00 9.00,27.50 15.00,24.00 9.00,20.50" fill="#1B4F8A"/>
  <circle cx="24" cy="24" r="9" fill="#C8A96E"/>
  <circle cx="24" cy="24" r="5.5" fill="#FFFFFF"/>
  <circle cx="24" cy="24" r="2.5" fill="#C8A96E"/>
  </g>
  <!-- Wordmark -->
  <text x="62" y="26" font-family="'Segoe UI', Inter, system-ui, sans-serif" font-size="19" font-weight="700" fill="#1B4F8A" letter-spacing="-0.2">Buenos Aires</text>
  <line x1="62" y1="34" x2="218" y2="34" stroke="#C8A96E" stroke-width="1"/>
  <text x="63" y="46" font-family="'Segoe UI', Inter, system-ui, sans-serif" font-size="10" font-weight="300" fill="#1B4F8A" letter-spacing="4" opacity="0.85">EXPLORER</text>
  <!-- Separator + label -->
  <line x1="224" y1="14" x2="224" y2="46" stroke="#C8A96E" stroke-width="1" opacity="0.9"/>
  <text x="232" y="34" font-family="'Segoe UI', Inter, system-ui, sans-serif" font-size="11" font-weight="600" fill="#C8A96E" letter-spacing="1.5">BAExp</text>
</svg>